<svg viewBox="0 0 96 96" xmlns="http://www.w3.org/2000/svg" xmlns:xlink="http://www.w3.org/1999/xlink" id="Icons_Gyrotheodolite" overflow="hidden"><path d="M69.851 87.453 53.034 47.091 53.9 47.091C55.5569 47.091 56.9 45.7479 56.9 44.091L56.9 33.446 53.005 33.446 53.005 29.446 57.005 29.446 57.005 19.009C57.0049 17.6757 56.827 16.3483 56.476 15.062L54.608 8.211C54.2522 6.90578 53.0668 6.00017 51.714 6L44.3 6C42.9449 5.99747 41.7564 6.90363 41.4 8.211L39.532 15.062C39.181 16.3483 39.0031 17.6757 39.003 19.009L39.003 29.446 43.003 29.446 43.003 33.446 39.003 33.446 39.003 44.091C39.003 45.7479 40.3461 47.091 42.003 47.091L42.974 47.091 26.159 87.453C25.7188 88.4661 26.1832 89.6442 27.1963 90.0844 28.2093 90.5246 29.3874 90.0602 29.8276 89.0471 29.8357 89.0285 29.8435 89.0098 29.851 88.991L38.6 68 46.007 68 46.007 82.667C46.007 83.7716 46.9024 84.667 48.007 84.667 49.1116 84.667 50.007 83.7716 50.007 82.667L50.007 68 57.414 68 66.161 88.991C66.5702 90.017 67.7337 90.5169 68.7596 90.1077 69.7856 89.6985 70.2856 88.5351 69.8764 87.5091 69.8689 87.4903 69.8611 87.4716 69.853 87.453ZM48.005 12C49.6619 12 51.005 13.3431 51.005 15 51.005 16.6569 49.6619 18 48.005 18 46.3481 18 45.005 16.6569 45.005 15 45.005 13.3431 46.3481 12 48.005 12ZM40.264 64 46.005 50.223 46.005 64ZM50.005 64 50.005 50.221 55.746 64Z" stroke-width="0.0634121" fill="#17375E"/></svg>