<svg viewBox="0 0 96 96" xmlns="http://www.w3.org/2000/svg" xmlns:xlink="http://www.w3.org/1999/xlink" id="Icons_DumpTruck" overflow="hidden"><g><circle cx="20" cy="67.5" r="7" fill="#17375E"/><circle cx="78" cy="67.5" r="7" fill="#17375E"/><path d="M68 45.5 68 35.5 74 35.5C75.8 35.5 77.4 36.7 77.8 38.4L79.8 45.3C79.8 45.4 79.9 45.4 79.9 45.5L68 45.5ZM90.4 50.3 85.1 46.3C84.4 45.8 83.9 45 83.7 44.2L81.7 37.3C80.7 33.9 77.6 31.5 74 31.5L64 31.5 64 45.5 64 51.5 64 67.5 68 67.5C68 62 72.5 57.5 78 57.5 83.5 57.5 88 62 88 67.5 90.2 67.5 92 65.7 92 63.5L92 53.5C92 52.2 91.4 51.1 90.4 50.3Z" fill="#17375E"/><path d="M4 67.5 10 67.5C10 62 14.5 57.5 20 57.5 25.5 57.5 30 62 30 67.5L60 67.5 60 53.5 4 53.5 4 67.5Z" fill="#17375E"/><path d="M68 27.5 68 21.5 52 21.5 48 25.5 13 25.5 4 25.5 4 40.5 13 49.5 60 49.5 60 31.5 64 27.5Z" fill="#17375E"/></g></svg>